<?xml version="1.0" encoding="UTF-8"?>
<svg id="_图层_1" data-name="图层_1" xmlns="http://www.w3.org/2000/svg" version="1.1" viewBox="0 0 1777.5 442.2">
  <!-- Generator: Adobe Illustrator 30.4.0, SVG Export Plug-In . SVG Version: 2.1.4 Build 226)  -->
  <defs>
    <style>
      .st0 {
        fill: #dfdfdf;
      }
    </style>
  </defs>
  <g>
    <path class="st0" d="M665.1,128.1h-81.9v43.3h93.3v30.3h-127.7V33.2h123.6v29.8h-89.2v35.8h81.9v29.3Z"/>
    <path class="st0" d="M812.3,201.8h-40.6l-21.5-37.4-21.6,37.4h-39.6l42.5-63.1-40.7-61.3h39.9l20.8,36.1,20.4-36.1h38.8l-40.9,60.7,42.5,63.7Z"/>
    <path class="st0" d="M935.9,90.5c10.1,10.7,15.1,26.5,15.1,47.3s-4.9,38.7-14.8,50.2c-9.9,11.5-22.6,17.3-38.1,17.3s-18.1-2.5-24.7-7.4c-3.6-2.7-7.1-6.7-10.5-12v64.9h-32.2V77.1h31.2v18.4c3.5-5.4,7.2-9.7,11.2-12.8,7.2-5.6,15.9-8.3,25.8-8.3,14.6,0,26.9,5.4,37,16.1ZM917.4,139.4c0-9.6-2.2-18.1-6.6-25.5-4.4-7.4-11.5-11.1-21.3-11.1s-19.9,5.6-24.4,16.8c-2.3,5.9-3.4,13.5-3.4,22.6,0,14.5,3.8,24.7,11.5,30.5,4.6,3.4,10,5.1,16.2,5.1,9.1,0,16-3.5,20.8-10.5,4.8-7,7.1-16.4,7.1-28Z"/>
    <path class="st0" d="M1037.3,107.2c-13.1,0-21.9,4.3-26.4,12.8-2.5,4.8-3.8,12.2-3.8,22.2v59.6h-32.8v-124.6h31.1v21.7c5-8.3,9.4-14,13.1-17,6.1-5.1,14-7.7,23.8-7.7s1.1,0,1.5,0c.4,0,1.4,0,2.8.2v33.4c-2.1-.2-3.9-.4-5.5-.5-1.6,0-2.9-.1-3.9-.1Z"/>
    <path class="st0" d="M1172.4,165.2c-.8,7.4-4.7,14.9-11.5,22.5-10.7,12.1-25.6,18.2-44.8,18.2s-29.8-5.1-42-15.3c-12.1-10.2-18.2-26.8-18.2-49.9s5.5-38.1,16.4-49.6c10.9-11.5,25.1-17.3,42.6-17.3s19.7,1.9,28,5.8c8.3,3.9,15.2,10,20.6,18.4,4.9,7.4,8,16,9.5,25.7.8,5.7,1.2,14,1,24.7h-85.3c.5,12.5,4.4,21.3,11.8,26.3,4.5,3.1,9.9,4.7,16.2,4.7s12.2-1.9,16.4-5.7c2.3-2.1,4.3-4.9,6.1-8.6h33.3ZM1140.2,127c-.5-8.6-3.1-15.2-7.8-19.6-4.7-4.5-10.5-6.7-17.4-6.7s-13.4,2.4-17.6,7.1c-4.2,4.7-6.8,11.1-7.8,19.2h50.7Z"/>
    <path class="st0" d="M1281.8,82.8c9.8,6.3,15.4,17,16.8,32.2h-32.6c-.5-4.2-1.6-7.5-3.5-9.9-3.6-4.4-9.7-6.6-18.3-6.6s-12.1,1.1-15.2,3.3c-3,2.2-4.5,4.8-4.5,7.8s1.6,6.4,4.8,8.1c3.2,1.8,14.5,4.8,34,9,13,3,22.7,7.7,29.2,13.8,6.4,6.3,9.6,14.1,9.6,23.4s-4.6,22.4-13.8,30.2c-9.2,7.8-23.4,11.7-42.6,11.7s-34.1-4.1-43.4-12.4c-9.3-8.3-14-18.8-14-31.6h33c.7,5.8,2.2,9.9,4.5,12.3,4,4.3,11.5,6.5,22.4,6.5s11.5-1,15.3-2.9c3.8-1.9,5.7-4.8,5.7-8.6s-1.5-6.4-4.6-8.3c-3-1.9-14.4-5.2-34-9.8-14.1-3.5-24.1-7.9-29.8-13.2-5.8-5.2-8.7-12.7-8.7-22.4s4.5-21.4,13.5-29.7c9-8.3,21.7-12.4,38.1-12.4s28.2,3.1,38.1,9.3Z"/>
    <path class="st0" d="M1412.1,82.8c9.8,6.3,15.4,17,16.8,32.2h-32.6c-.5-4.2-1.6-7.5-3.5-9.9-3.6-4.4-9.7-6.6-18.3-6.6s-12.1,1.1-15.2,3.3c-3,2.2-4.5,4.8-4.5,7.8s1.6,6.4,4.8,8.1c3.2,1.8,14.5,4.8,34,9,13,3,22.7,7.7,29.2,13.8,6.4,6.3,9.6,14.1,9.6,23.4s-4.6,22.4-13.8,30.2c-9.2,7.8-23.4,11.7-42.6,11.7s-34.1-4.1-43.4-12.4c-9.3-8.3-14-18.8-14-31.6h33c.7,5.8,2.2,9.9,4.5,12.3,4,4.3,11.5,6.5,22.4,6.5s11.5-1,15.3-2.9c3.8-1.9,5.7-4.8,5.7-8.6s-1.5-6.4-4.6-8.3c-3-1.9-14.4-5.2-34-9.8-14.1-3.5-24.1-7.9-29.8-13.2-5.8-5.2-8.7-12.7-8.7-22.4s4.5-21.4,13.5-29.7c9-8.3,21.7-12.4,38.1-12.4s28.2,3.1,38.1,9.3Z"/>
    <path class="st0" d="M1489.9,32.2v30.1h-33v-30.1h33ZM1489.9,77.1v124.6h-33v-124.6h33Z"/>
    <path class="st0" d="M1625.4,92.9c10.5,13.2,15.8,28.8,15.8,46.8s-5.3,33.9-15.8,46.9c-10.5,13-26.5,19.5-47.9,19.5s-37.4-6.5-47.9-19.5c-10.5-13-15.8-28.6-15.8-46.9s5.3-33.6,15.8-46.8c10.5-13.2,26.5-19.8,47.9-19.8s37.4,6.6,47.9,19.8ZM1577.4,100.7c-9.5,0-16.9,3.4-22,10.1-5.1,6.7-7.7,16.4-7.7,28.9s2.6,22.1,7.7,28.9c5.1,6.8,12.5,10.2,22,10.2s16.8-3.4,22-10.2c5.1-6.8,7.7-16.4,7.7-28.9s-2.6-22.1-7.7-28.9c-5.1-6.7-12.4-10.1-22-10.1Z"/>
    <path class="st0" d="M1723.2,101.3c-11.1,0-18.6,4.7-22.8,14.1-2.1,5-3.2,11.3-3.2,19v67.5h-32.5v-124.4h31.4v18.2c4.2-6.4,8.2-11,11.9-13.8,6.7-5,15.2-7.5,25.5-7.5s23.4,3.4,31.6,10.1c8.2,6.7,12.3,17.9,12.3,33.6v83.9h-33.4v-75.8c0-6.6-.9-11.6-2.6-15.1-3.2-6.4-9.3-9.6-18.3-9.6Z"/>
  </g>
  <path class="st0" d="M549.2,274.7h16.6v50.1h62.3v-50.1h16.6v121.3h-16.6v-56.7h-62.3v56.7h-16.6v-121.3Z"/>
  <path class="st0" d="M726.9,310c5.9,2.9,10.3,6.8,13.4,11.4,3,4.5,4.9,9.7,5.9,15.6.9,4.1,1.3,10.6,1.3,19.5h-64.3c.3,9,2.4,16.2,6.3,21.7,3.9,5.4,10,8.2,18.3,8.2s13.8-2.6,18.4-7.7c2.6-3,4.4-6.4,5.5-10.4h14.6c-.4,3.2-1.7,6.9-3.8,10.9-2.2,4-4.6,7.3-7.3,9.8-4.5,4.4-10,7.4-16.6,8.9-3.6.9-7.6,1.3-12,1.3-10.9,0-20.2-4-27.8-12-7.6-8-11.4-19.2-11.4-33.6s3.8-25.7,11.5-34.6c7.7-8.9,17.7-13.3,30-13.3s12.3,1.5,18.1,4.4ZM732.3,344.7c-.6-6.4-2-11.6-4.2-15.4-4-7.2-10.8-10.7-20.2-10.7s-12.4,2.5-17,7.4c-4.6,4.9-7,11.2-7.3,18.8h48.7Z"/>
  <path class="st0" d="M770.2,307.6h14.1v15.3c1.2-3,4-6.6,8.5-10.9,4.5-4.3,9.7-6.4,15.6-6.4s.7,0,1.4,0c.7,0,1.8.2,3.4.3v15.7c-.9-.2-1.7-.3-2.4-.3-.7,0-1.6,0-2.4,0-7.5,0-13.2,2.4-17.3,7.2-4,4.8-6,10.4-6,16.6v50.9h-14.9v-88.4Z"/>
  <path class="st0" d="M829.4,274.7h15.1v16.8h-15.1v-16.8ZM829.4,308h15.1v88h-15.1v-88Z"/>
  <path class="st0" d="M873.4,282.9h15v24.7h14.1v12.1h-14.1v57.7c0,3.1,1,5.1,3.1,6.2,1.2.6,3.1.9,5.8.9s1.5,0,2.3,0,1.8-.1,2.9-.3v11.8c-1.7.5-3.5.9-5.3,1.1-1.8.2-3.8.3-6,.3-6.9,0-11.6-1.8-14.1-5.3-2.5-3.5-3.7-8.2-3.7-13.8v-58.5h-12v-12.1h12v-24.7Z"/>
  <path class="st0" d="M968.1,342.5c3.4-.4,5.7-1.9,6.9-4.3.7-1.3,1-3.2,1-5.7,0-5.1-1.8-8.8-5.4-11.1s-8.7-3.4-15.4-3.4-13.2,2.1-16.5,6.3c-1.8,2.3-3,5.8-3.5,10.4h-13.9c.3-10.9,3.8-18.5,10.6-22.8s14.7-6.4,23.6-6.4,18.8,2,25.3,5.9c6.4,4,9.6,10.1,9.6,18.5v50.9c0,1.5.3,2.8.9,3.7.6.9,2,1.4,4,1.4s1.4,0,2.2-.1,1.7-.2,2.6-.4v11c-2.3.7-4.1,1.1-5.3,1.2-1.2.2-2.9.2-5,.2-5.1,0-8.8-1.8-11.1-5.4-1.2-1.9-2.1-4.7-2.6-8.2-3,4-7.4,7.4-13,10.3-5.7,2.9-11.9,4.4-18.7,4.4s-14.9-2.5-20.1-7.5c-5.2-5-7.8-11.2-7.8-18.7s2.6-14.5,7.7-19,11.8-7.3,20.1-8.3l23.7-3ZM936.8,382.6c3.1,2.5,6.9,3.7,11.1,3.7s10.3-1.2,15.2-3.6c8.3-4,12.4-10.6,12.4-19.7v-12c-1.8,1.2-4.1,2.1-7,2.9-2.9.8-5.7,1.3-8.4,1.7l-9,1.2c-5.4.7-9.4,1.8-12.1,3.4-4.6,2.6-6.9,6.7-6.9,12.4s1.6,7.7,4.7,10.1Z"/>
  <path class="st0" d="M1067.3,311.1c2.8,1.9,5.6,4.7,8.6,8.4v-11.1h13.7v80.4c0,11.2-1.6,20.1-4.9,26.6-6.1,12-17.7,18-34.8,18s-17.5-2.1-23.9-6.4c-6.5-4.3-10.1-10.9-10.9-20h15.1c.7,4,2.1,7,4.3,9.2,3.3,3.3,8.6,5,15.8,5,11.3,0,18.7-4,22.3-12.1,2.1-4.7,3-13.2,2.9-25.3-3,4.5-6.5,7.9-10.7,10.1-4.2,2.2-9.7,3.3-16.5,3.3s-17.9-3.4-25-10.2c-7.2-6.8-10.7-18-10.7-33.7s3.6-26.4,10.8-34.7c7.2-8.3,15.9-12.5,26.1-12.5s12.9,1.7,18.1,5.1ZM1069.1,327c-4.5-5.3-10.2-7.9-17.2-7.9-10.4,0-17.5,4.9-21.4,14.7-2,5.2-3,12.1-3,20.6s2,17.5,6,22.7c4,5.2,9.4,7.8,16.2,7.8,10.6,0,18.1-4.8,22.4-14.4,2.4-5.4,3.6-11.8,3.6-19.1,0-11-2.2-19.1-6.7-24.4Z"/>
  <path class="st0" d="M1170.2,310c5.9,2.9,10.3,6.8,13.4,11.4,3,4.5,4.9,9.7,5.9,15.6.9,4.1,1.3,10.6,1.3,19.5h-64.3c.3,9,2.4,16.2,6.3,21.7,3.9,5.4,10,8.2,18.3,8.2s13.8-2.6,18.4-7.7c2.6-3,4.4-6.4,5.5-10.4h14.6c-.4,3.2-1.7,6.9-3.8,10.9-2.2,4-4.6,7.3-7.3,9.8-4.5,4.4-10,7.4-16.6,8.9-3.6.9-7.6,1.3-12,1.3-10.9,0-20.2-4-27.8-12-7.6-8-11.4-19.2-11.4-33.6s3.8-25.7,11.5-34.6c7.7-8.9,17.7-13.3,30-13.3s12.3,1.5,18.1,4.4ZM1175.5,344.7c-.6-6.4-2-11.6-4.2-15.4-4-7.2-10.8-10.7-20.2-10.7s-12.4,2.5-17,7.4c-4.6,4.9-7,11.2-7.3,18.8h48.7Z"/>
  <g>
    <path class="st0" d="M1265.3,274.7h16.4v106.8h60.8v14.4h-77.3v-121.3Z"/>
    <path class="st0" d="M1408.2,342.5c3.4-.4,5.7-1.9,6.9-4.3.7-1.3,1-3.2,1-5.7,0-5.1-1.8-8.8-5.4-11.1s-8.7-3.4-15.4-3.4-13.2,2.1-16.5,6.3c-1.8,2.3-3,5.8-3.5,10.4h-13.9c.3-10.9,3.8-18.5,10.6-22.8s14.7-6.4,23.6-6.4,18.8,2,25.3,5.9c6.4,4,9.6,10.1,9.6,18.5v50.9c0,1.5.3,2.8.9,3.7.6.9,2,1.4,4,1.4s1.4,0,2.2-.1,1.7-.2,2.6-.4v11c-2.3.7-4.1,1.1-5.3,1.2-1.2.2-2.9.2-5,.2-5.1,0-8.8-1.8-11.1-5.4-1.2-1.9-2.1-4.7-2.6-8.2-3,4-7.4,7.4-13,10.3-5.7,2.9-11.9,4.4-18.7,4.4s-14.9-2.5-20.1-7.5c-5.2-5-7.8-11.2-7.8-18.7s2.6-14.5,7.7-19,11.8-7.3,20.1-8.3l23.7-3ZM1376.9,382.6c3.1,2.5,6.9,3.7,11.1,3.7s10.3-1.2,15.2-3.6c8.3-4,12.4-10.6,12.4-19.7v-12c-1.8,1.2-4.1,2.1-7,2.9-2.9.8-5.7,1.3-8.4,1.7l-9,1.2c-5.4.7-9.4,1.8-12.1,3.4-4.6,2.6-6.9,6.7-6.9,12.4s1.6,7.7,4.7,10.1Z"/>
    <path class="st0" d="M1457,274.3h14.4v44c3.3-4.2,7.2-7.5,11.7-9.7,4.5-2.2,9.4-3.3,14.8-3.3,11.1,0,20,3.8,26.9,11.4,6.9,7.6,10.3,18.7,10.3,33.5s-3.4,25.6-10.2,34.8c-6.8,9.2-16.2,13.9-28.3,13.9s-12.4-1.6-17.1-4.9c-2.8-1.9-5.7-5-8.9-9.2v11.3h-13.7v-121.7ZM1513.8,376.1c4-6.4,6-14.8,6-25.3s-2-17-6-23.1c-4-6.1-9.9-9.2-17.7-9.2s-12.7,2.5-17.9,7.5c-5.1,5-7.7,13.3-7.7,24.8s1,15.1,3.1,20.2c3.9,9.7,11.2,14.6,22,14.6s14.1-3.2,18.1-9.6Z"/>
  </g>
  <g>
    <path class="st0" d="M402.1,229.6l-17.3-17.3c42.9-42.9,42.9-112.7,0-155.6-20.8-20.8-48.4-32.2-77.8-32.2s-57,11.4-77.8,32.2l-17.3-17.3C237.3,14,271.1,0,307,0s69.7,14,95.1,39.4c52.4,52.4,52.4,137.8,0,190.2Z"/>
    <path class="st0" d="M358.9,186.4l-17.3-17.3c9.2-9.2,14.3-21.5,14.3-34.6s-5.1-25.3-14.3-34.6c-19.1-19.1-50.1-19.1-69.2,0l-17.3-17.3c28.6-28.6,75.2-28.6,103.7,0,13.9,13.9,21.5,32.3,21.5,51.9s-7.6,38-21.5,51.9Z"/>
    <path class="st0" d="M358.9,186.4l-17.3-17.3c9.2-9.2,14.3-21.5,14.3-34.6s-5.1-25.3-14.3-34.6c-19.1-19.1-50.1-19.1-69.2,0l-17.3-17.3c28.6-28.6,75.2-28.6,103.7,0,13.9,13.9,21.5,32.3,21.5,51.9s-7.6,38-21.5,51.9Z"/>
    <rect class="st0" x="236.9" y="273.6" width="183.4" height="24.5" transform="translate(-105.8 316.1) rotate(-45)"/>
    <rect class="st0" x="193.7" y="230.4" width="183.4" height="24.5" transform="translate(-87.9 272.9) rotate(-45)"/>
    <path class="st0" d="M39.3,229.9c-52.4-52.4-52.4-137.8,0-190.2,52.4-52.4,137.8-52.4,190.2,0l-17.3,17.3c-42.9-42.9-112.7-42.9-155.6,0-42.9,42.9-42.9,112.7,0,155.6l-17.3,17.3Z"/>
    <path class="st0" d="M82.6,186.7c-28.6-28.6-28.6-75.1,0-103.8,13.9-13.9,32.3-21.5,51.9-21.5s38,7.6,51.9,21.5l-17.3,17.3c-9.2-9.2-21.5-14.3-34.6-14.3s-25.3,5.1-34.6,14.3c-19.1,19.1-19.1,50.1,0,69.2l-17.3,17.3Z"/>
    <path class="st0" d="M82.6,186.7c-28.6-28.6-28.6-75.1,0-103.8,13.9-13.9,32.3-21.5,51.9-21.5s38,7.6,51.9,21.5l-17.3,17.3c-9.2-9.2-21.5-14.3-34.6-14.3s-25.3,5.1-34.6,14.3c-19.1,19.1-19.1,50.1,0,69.2l-17.3,17.3Z"/>
    <rect class="st0" x="273.3" y="21.6" width="24.5" height="182.9" transform="translate(3.7 235) rotate(-45)"/>
    <rect class="st0" x="230.1" y="64.8" width="24.5" height="182.9" transform="translate(-39.5 217.1) rotate(-45)"/>
    <path class="st0" d="M134.4,442.2c-34.4,0-68.9-13.1-95.1-39.3-52.4-52.4-52.4-137.8,0-190.2l17.3,17.3c-42.9,42.9-42.9,112.7,0,155.6,42.9,42.9,112.7,42.9,155.6,0l17.3,17.3c-26.2,26.2-60.7,39.3-95.1,39.3Z"/>
    <path class="st0" d="M134.4,381.1c-19.6,0-38-7.6-51.9-21.5-28.6-28.6-28.6-75.1,0-103.8l17.3,17.3c-19.1,19.1-19.1,50.1,0,69.2,9.2,9.2,21.5,14.3,34.6,14.3s25.3-5.1,34.6-14.3l17.3,17.3c-13.9,13.9-32.3,21.5-51.9,21.5Z"/>
    <path class="st0" d="M134.4,381.1c-19.6,0-38-7.6-51.9-21.5-28.6-28.6-28.6-75.1,0-103.8l17.3,17.3c-19.1,19.1-19.1,50.1,0,69.2,9.2,9.2,21.5,14.3,34.6,14.3s25.3-5.1,34.6-14.3l17.3,17.3c-13.9,13.9-32.3,21.5-51.9,21.5Z"/>
    <rect class="st0" x="21.1" y="144.2" width="183.4" height="24.5" transform="translate(-77.6 125.6) rotate(-45)"/>
    <rect class="st0" x="64.3" y="187.5" width="183.4" height="24.5" transform="translate(-95.5 168.8) rotate(-45)"/>
    <path class="st0" d="M307,441.9c-35.9,0-69.7-14-95.1-39.4l17.3-17.3c20.8,20.8,48.4,32.2,77.8,32.2s57-11.4,77.8-32.2c42.9-42.9,42.9-112.7,0-155.6l17.3-17.3c52.4,52.4,52.4,137.8,0,190.2-25.4,25.4-59.2,39.4-95.1,39.4Z"/>
    <path class="st0" d="M307,380.8c-18.8,0-37.6-7.2-51.9-21.5l17.3-17.3c19.1,19.1,50.1,19.1,69.2,0,9.2-9.2,14.3-21.5,14.3-34.6s-5.1-25.3-14.3-34.6l17.3-17.3c13.9,13.9,21.5,32.3,21.5,51.9s-7.6,38-21.5,51.9c-14.3,14.3-33.1,21.5-51.9,21.5Z"/>
    <path class="st0" d="M307,380.8c-18.8,0-37.6-7.2-51.9-21.5l17.3-17.3c19.1,19.1,50.1,19.1,69.2,0,9.2-9.2,14.3-21.5,14.3-34.6s-5.1-25.3-14.3-34.6l17.3-17.3c13.9,13.9,21.5,32.3,21.5,51.9s-7.6,38-21.5,51.9c-14.3,14.3-33.1,21.5-51.9,21.5Z"/>
    <rect class="st0" x="143.7" y="237.7" width="24.5" height="182.9" transform="translate(-187.1 206.7) rotate(-45)"/>
    <rect class="st0" x="186.9" y="194.5" width="24.5" height="182.9" transform="translate(-143.9 224.6) rotate(-45)"/>
  </g>
</svg>